<svg version="1.1" id="Layer_1" xmlns="http://www.w3.org/2000/svg" xmlns:xlink="http://www.w3.org/1999/xlink" x="0px" y="0px"
	 width="100%" viewBox="0 0 206 206" enable-background="new 0 0 206 206" xml:space="preserve">
<path fill="#151425" opacity="1.000000" stroke="none" 
	d="
M207.000000,74.000000 
	C207.000000,118.666664 207.000000,162.833328 207.000000,207.000000 
	C138.333328,207.000000 69.666664,207.000000 1.000000,207.000000 
	C1.000000,138.333328 1.000000,69.666664 1.000000,1.000000 
	C69.666664,1.000000 138.333328,1.000000 207.000000,1.000000 
	C207.000000,25.166666 207.000000,49.333332 207.000000,74.000000 
M143.787094,35.269871 
	C144.017456,35.367416 144.247818,35.464958 144.478180,35.562504 
	C144.310379,35.381317 144.142593,35.200130 143.869308,34.331127 
	C107.262573,9.473066 58.242275,17.654560 30.054819,53.326771 
	C3.693168,86.688362 8.211451,136.618210 40.421032,165.966293 
	C72.568916,195.258148 118.360184,192.687180 143.686768,172.828232 
	C130.541458,179.020676 116.982674,183.132126 101.980026,181.887817 
	C101.980026,177.101288 102.117325,172.783325 101.890282,168.484604 
	C101.828049,167.306335 100.939636,165.535370 99.978676,165.143188 
	C93.264488,162.403152 86.431656,159.953842 77.759178,156.708893 
	C74.351700,160.772980 70.119072,165.821228 66.287766,170.390823 
	C59.872787,163.997986 54.131229,158.276230 47.358398,151.526779 
	C52.125523,147.500732 57.171322,143.239334 61.505280,139.579117 
	C58.021156,131.235397 55.043091,124.103592 51.881775,116.532928 
	C45.678810,116.532928 39.248653,116.532928 32.745262,116.532928 
	C32.745262,107.896774 32.745262,99.698387 32.745262,91.155579 
	C39.656574,91.155579 46.120419,91.155579 51.973160,91.155579 
	C55.185619,83.502464 58.179626,76.369766 61.843754,67.640640 
	C57.535625,63.950520 52.525295,59.658939 48.184883,55.941166 
	C54.466896,49.552372 60.152397,43.770233 66.819588,36.989723 
	C70.927818,41.752949 75.246643,46.760345 78.949181,51.053196 
	C86.219467,48.146042 92.235107,45.303024 98.536308,43.411068 
	C101.550987,42.505898 102.128098,41.270584 102.036308,38.611122 
	C101.894432,34.500542 101.998901,30.381462 101.998901,26.060215 
	C115.580574,25.193108 127.846176,28.078840 139.610489,33.597504 
	C141.007797,34.252979 142.594498,34.504669 143.787094,35.269871 
M145.526657,123.499573 
	C145.526657,109.533203 145.526657,95.566841 145.526657,80.968224 
	C158.973053,80.968224 172.013748,80.968224 184.943527,80.968224 
	C184.943527,73.040703 184.943527,65.750717 184.943527,58.402737 
	C146.917511,58.402737 109.074112,58.402737 71.351715,58.402737 
	C71.351715,66.088806 71.351715,73.368904 71.351715,81.225296 
	C84.620026,81.225296 97.666374,81.225296 111.022903,81.225296 
	C111.022903,105.737625 111.022903,129.669449 111.022903,153.559708 
	C127.355644,155.434204 131.623825,154.570419 141.190247,148.320129 
	C144.172729,146.371475 145.564987,143.959061 145.534790,140.495544 
	C145.488312,135.163773 145.525146,129.831268 145.526657,123.499573 
M105.563019,2.992552 
	C85.155678,3.602730 66.608070,9.656442 49.492962,21.690575 
	C50.458237,22.028021 50.817879,22.290796 51.013336,22.200026 
	C52.368042,21.570887 53.688091,20.867212 55.020191,20.189289 
	C72.750427,11.166161 91.549431,7.915483 111.189499,10.638333 
	C138.864960,14.475194 160.639847,28.207508 176.813950,50.954353 
	C177.586243,52.040478 179.010696,53.285271 180.191833,53.349747 
	C185.109650,53.618195 190.050613,53.462673 196.221603,53.462673 
	C174.510544,20.223146 145.244766,3.232859 105.563019,2.992552 
M145.348145,185.937546 
	C113.640678,202.982040 81.899902,202.101578 50.130413,185.771317 
	C92.156578,219.205246 165.029083,208.941193 195.429581,154.512955 
	C191.107590,154.512955 187.179886,154.667389 183.270630,154.465195 
	C180.010056,154.296570 177.873016,155.186127 175.875046,158.114624 
	C168.074036,169.548721 157.948624,178.590775 145.348145,185.937546 
z"/>
<path fill="#F9AF3B" opacity="1.000000" stroke="none" 
	d="
M144.093414,34.943527 
	C142.594498,34.504669 141.007797,34.252979 139.610489,33.597504 
	C127.846176,28.078840 115.580574,25.193108 101.998901,26.060215 
	C101.998901,30.381462 101.894432,34.500542 102.036308,38.611122 
	C102.128098,41.270584 101.550987,42.505898 98.536308,43.411068 
	C92.235107,45.303024 86.219467,48.146042 78.949181,51.053196 
	C75.246643,46.760345 70.927818,41.752949 66.819588,36.989723 
	C60.152397,43.770233 54.466896,49.552372 48.184883,55.941166 
	C52.525295,59.658939 57.535625,63.950520 61.843754,67.640640 
	C58.179626,76.369766 55.185619,83.502464 51.973160,91.155579 
	C46.120419,91.155579 39.656574,91.155579 32.745262,91.155579 
	C32.745262,99.698387 32.745262,107.896774 32.745262,116.532928 
	C39.248653,116.532928 45.678810,116.532928 51.881775,116.532928 
	C55.043091,124.103592 58.021156,131.235397 61.505280,139.579117 
	C57.171322,143.239334 52.125523,147.500732 47.358398,151.526779 
	C54.131229,158.276230 59.872787,163.997986 66.287766,170.390823 
	C70.119072,165.821228 74.351700,160.772980 77.759178,156.708893 
	C86.431656,159.953842 93.264488,162.403152 99.978676,165.143188 
	C100.939636,165.535370 101.828049,167.306335 101.890282,168.484604 
	C102.117325,172.783325 101.980026,177.101288 101.980026,181.887817 
	C116.982674,183.132126 130.541458,179.020676 143.686768,172.828232 
	C118.360184,192.687180 72.568916,195.258148 40.421032,165.966293 
	C8.211451,136.618210 3.693168,86.688362 30.054819,53.326771 
	C58.242275,17.654560 107.262573,9.473066 143.950653,34.654514 
	C144.031982,34.977901 144.093414,34.943527 144.093414,34.943527 
z"/>
<path fill="#FAF9FA" opacity="1.000000" stroke="none" 
	d="
M145.526642,123.999329 
	C145.525146,129.831268 145.488312,135.163773 145.534790,140.495544 
	C145.564987,143.959061 144.172729,146.371475 141.190247,148.320129 
	C131.623825,154.570419 127.355644,155.434204 111.022903,153.559708 
	C111.022903,129.669449 111.022903,105.737625 111.022903,81.225296 
	C97.666374,81.225296 84.620026,81.225296 71.351715,81.225296 
	C71.351715,73.368904 71.351715,66.088806 71.351715,58.402737 
	C109.074112,58.402737 146.917511,58.402737 184.943527,58.402737 
	C184.943527,65.750717 184.943527,73.040703 184.943527,80.968224 
	C172.013748,80.968224 158.973053,80.968224 145.526657,80.968224 
	C145.526657,95.566841 145.526657,109.533203 145.526642,123.999329 
z"/>
<path fill="#F5AC3B" opacity="1.000000" stroke="none" 
	d="
M106.050522,2.992540 
	C145.244766,3.232859 174.510544,20.223146 196.221603,53.462673 
	C190.050613,53.462673 185.109650,53.618195 180.191833,53.349747 
	C179.010696,53.285271 177.586243,52.040478 176.813950,50.954353 
	C160.639847,28.207508 138.864960,14.475194 111.189499,10.638333 
	C91.549431,7.915483 72.750427,11.166161 55.020191,20.189289 
	C53.688091,20.867212 52.368042,21.570887 51.013336,22.200026 
	C50.817879,22.290796 50.458237,22.028021 49.492962,21.690575 
	C66.608070,9.656442 85.155678,3.602730 106.050522,2.992540 
z"/>
<path fill="#F6AD3B" opacity="1.000000" stroke="none" 
	d="
M145.660065,185.741394 
	C157.948624,178.590775 168.074036,169.548721 175.875046,158.114624 
	C177.873016,155.186127 180.010056,154.296570 183.270630,154.465195 
	C187.179886,154.667389 191.107590,154.512955 195.429581,154.512955 
	C165.029083,208.941193 92.156578,219.205246 50.130413,185.771317 
	C81.899902,202.101578 113.640678,202.982040 145.660065,185.741394 
z"/>
<path fill="#F9AF3B" opacity="1.000000" stroke="none" 
	d="
M144.003387,34.998421 
	C144.142593,35.200130 144.310379,35.381317 144.478180,35.562500 
	C144.247818,35.464958 144.017456,35.367416 143.940247,35.106697 
	C144.093414,34.943527 144.031982,34.977901 144.003387,34.998421 
z"/>
</svg>